
<svg xmlns="http://www.w3.org/2000/svg" width="95.148" height="95.148" viewBox="0 0 95.148 95.148">
<g id="Icon_feather-settings" transform="translate(2 2)">
    <path id="Контур_4" d="M37.54,25.52A12.02,12.02,0,1,1,25.52,13.5,12.02,12.02,0,0,1,37.54,25.52Z" transform="translate(20.054 20.054)" fill="none" stroke="#fff" stroke-linecap="round" stroke-linejoin="round" stroke-width="7"/>
    <path id="Контур_5" d="M75.224,57.594a6.611,6.611,0,0,0,1.322,7.292l.24.24A8.018,8.018,0,1,1,65.448,76.466l-.24-.24a6.665,6.665,0,0,0-11.3,4.728v.681a8.013,8.013,0,1,1-16.027,0v-.361a6.611,6.611,0,0,0-4.327-6.05,6.611,6.611,0,0,0-7.292,1.322l-.24.24A8.018,8.018,0,1,1,14.682,65.448l.24-.24a6.665,6.665,0,0,0-4.728-11.3H9.513a8.013,8.013,0,1,1,0-16.027h.361a6.611,6.611,0,0,0,6.05-4.327A6.611,6.611,0,0,0,14.6,26.262l-.24-.24A8.018,8.018,0,1,1,25.7,14.682l.24.24a6.611,6.611,0,0,0,7.292,1.322h.321a6.611,6.611,0,0,0,4.007-6.05V9.513a8.013,8.013,0,0,1,16.027,0v.361a6.665,6.665,0,0,0,11.3,4.728l.24-.24A8.018,8.018,0,1,1,76.466,25.7l-.24.24A6.611,6.611,0,0,0,74.9,33.233v.321a6.611,6.611,0,0,0,6.05,4.007h.681a8.013,8.013,0,0,1,0,16.027h-.361a6.611,6.611,0,0,0-6.05,4.007Z" transform="translate(0 0)" fill="none" stroke="#fff" stroke-linecap="round" stroke-linejoin="round" stroke-width="7"/>
</g>
</svg>
